<?xml version="1.0" encoding="UTF-8"?>
<svg xmlns="http://www.w3.org/2000/svg" xmlns:xlink="http://www.w3.org/1999/xlink" width="612pt" height="792pt" viewBox="0 0 612 792" version="1.1">
<g id="surface1">
<path style=" stroke:none;fill-rule:evenodd;fill:rgb(0%,0%,0%);fill-opacity:1;" d="M 263.554688 366.554688 C 267.632813 366.542969 271.710938 366.550781 275.785156 366.550781 C 275.742188 372.078125 275.78125 377.605469 275.765625 383.136719 C 275.769531 396.824219 275.761719 410.511719 275.773438 424.199219 C 271.863281 424.199219 267.957031 424.199219 264.046875 424.199219 C 263.984375 424.179688 263.859375 424.144531 263.796875 424.128906 C 263.78125 423.320313 263.804688 422.511719 263.785156 421.703125 C 263.238281 422.121094 262.746094 422.601563 262.171875 422.980469 C 259.226563 424.996094 255.527344 425.683594 252.011719 425.371094 C 250.226563 425.226563 248.464844 424.808594 246.800781 424.144531 C 242.945313 422.601563 239.699219 419.683594 237.601563 416.117188 C 235.753906 412.992188 234.734375 409.402344 234.558594 405.789063 C 234.371094 402.582031 234.820313 399.332031 235.929688 396.316406 C 236.960938 393.53125 238.589844 390.957031 240.730469 388.894531 C 243.53125 386.140625 247.261719 384.347656 251.15625 383.867188 C 253.667969 383.550781 256.253906 383.675781 258.683594 384.421875 C 260.082031 384.839844 261.40625 385.492188 262.605469 386.320313 C 262.933594 386.546875 263.230469 386.8125 263.574219 387.011719 C 263.585938 381.128906 263.578125 375.246094 263.582031 369.363281 C 263.570313 368.425781 263.605469 367.488281 263.554688 366.554688 Z M 253.816406 394.351563 C 252.28125 394.648438 250.847656 395.390625 249.664063 396.398438 C 249.242188 396.824219 248.78125 397.214844 248.410156 397.6875 C 246.421875 400.324219 245.839844 403.867188 246.527344 407.0625 C 246.925781 409.046875 247.871094 410.933594 249.3125 412.367188 C 250.46875 413.433594 251.867188 414.28125 253.414063 414.636719 C 255.347656 415.074219 257.425781 414.996094 259.28125 414.269531 C 260.015625 413.960938 260.714844 413.558594 261.351563 413.085938 C 264.160156 410.960938 265.71875 407.359375 265.484375 403.863281 C 265.328125 401.183594 264.132813 398.578125 262.210938 396.707031 C 261.285156 395.882813 260.242188 395.167969 259.070313 394.742188 C 257.40625 394.097656 255.558594 394.074219 253.816406 394.351563 "/>
<path style=" stroke:none;fill-rule:evenodd;fill:rgb(0%,0%,0%);fill-opacity:1;" d="M 358.5625 366.632813 C 360.933594 366.597656 363.304688 366.625 365.675781 366.617188 C 367.363281 366.625 369.054688 366.597656 370.742188 366.632813 C 370.761719 372.40625 370.746094 378.179688 370.75 383.953125 C 370.742188 384.972656 370.761719 385.992188 370.738281 387.011719 C 371.113281 386.867188 371.382813 386.550781 371.71875 386.328125 C 373.410156 385.132813 375.394531 384.363281 377.4375 384.027344 C 379.8125 383.652344 382.261719 383.722656 384.601563 384.28125 C 386.769531 384.816406 388.855469 385.777344 390.582031 387.210938 C 392.109375 388.449219 393.363281 390.023438 394.246094 391.785156 C 395.179688 393.597656 395.703125 395.601563 395.910156 397.621094 C 396.03125 399.21875 395.984375 400.820313 395.992188 402.421875 C 395.996094 409.710938 395.984375 417.003906 396 424.296875 C 391.925781 424.273438 387.847656 424.316406 383.773438 424.273438 C 383.804688 417.15625 383.78125 410.046875 383.785156 402.929688 C 383.800781 401.535156 383.652344 400.117188 383.136719 398.816406 C 382.714844 397.75 381.976563 396.789063 380.980469 396.203125 C 380.355469 395.851563 379.664063 395.597656 378.949219 395.496094 C 376.929688 395.179688 374.714844 395.546875 373.101563 396.875 C 371.476563 398.210938 370.785156 400.371094 370.753906 402.414063 C 370.746094 409.703125 370.75 416.992188 370.753906 424.277344 C 366.6875 424.304688 362.621094 424.289063 358.554688 424.285156 C 358.546875 413.085938 358.554688 401.886719 358.550781 390.6875 C 358.558594 382.671875 358.535156 374.652344 358.5625 366.632813 "/>
<path style=" stroke:none;fill-rule:evenodd;fill:rgb(0%,0%,0%);fill-opacity:1;" d="M 297.316406 383.753906 C 298.539063 383.648438 299.761719 383.753906 300.984375 383.800781 C 303.949219 384.042969 306.976563 384.644531 309.53125 386.238281 C 311.730469 387.589844 313.371094 389.699219 314.421875 392.035156 C 315.238281 393.867188 315.722656 395.835938 316.023438 397.816406 C 316.390625 400.148438 316.5 402.511719 316.484375 404.867188 C 316.484375 411.3125 316.480469 417.753906 316.484375 424.195313 C 312.496094 424.199219 308.511719 424.203125 304.523438 424.195313 C 304.519531 422.824219 304.539063 421.457031 304.519531 420.089844 C 304.039063 420.796875 303.382813 421.367188 302.765625 421.953125 C 300.050781 424.3125 296.417969 425.578125 292.824219 425.441406 C 289.183594 425.402344 285.492188 423.921875 283.046875 421.179688 C 280.792969 418.660156 279.796875 415.140625 280.160156 411.804688 C 280.613281 408.742188 282.203125 405.863281 284.550781 403.847656 C 286.941406 401.757813 290.011719 400.59375 293.105469 400.066406 C 296.789063 399.425781 300.539063 399.6875 304.257813 399.65625 C 304.257813 398.644531 304.234375 397.601563 303.8125 396.660156 C 303.257813 395.324219 301.988281 394.441406 300.675781 393.949219 C 299.535156 393.535156 298.320313 393.335938 297.113281 393.371094 C 295.148438 393.335938 293.199219 393.855469 291.449219 394.730469 C 290.125 395.332031 288.914063 396.152344 287.820313 397.109375 C 286.476563 395.769531 285.085938 394.476563 283.742188 393.132813 C 282.800781 392.210938 281.863281 391.28125 280.898438 390.378906 C 283.371094 387.929688 286.484375 386.179688 289.78125 385.101563 C 292.21875 384.328125 294.757813 383.828125 297.316406 383.753906 Z M 295.328125 408.070313 C 294.3125 408.546875 293.296875 409.1875 292.714844 410.175781 C 292.257813 410.949219 292.148438 411.890625 292.300781 412.765625 C 292.519531 413.851563 293.390625 414.703125 294.375 415.136719 C 295.652344 415.679688 297.070313 415.691406 298.433594 415.613281 C 299.523438 415.476563 300.628906 415.21875 301.570313 414.632813 C 303.039063 413.78125 304.015625 412.242188 304.402344 410.613281 C 304.703125 409.488281 304.613281 408.320313 304.648438 407.171875 C 303.15625 407.160156 301.664063 407.167969 300.171875 407.164063 C 298.519531 407.144531 296.847656 407.402344 295.328125 408.070313 "/>
<path style=" stroke:none;fill-rule:evenodd;fill:rgb(0%,0%,0%);fill-opacity:1;" d="M 331.421875 384.683594 C 335.6875 383.308594 340.3125 383.367188 344.648438 384.394531 C 347.972656 385.179688 351.207031 386.621094 353.742188 388.949219 C 353.832031 389.035156 353.988281 389.160156 353.863281 389.289063 C 352.574219 390.648438 351.214844 391.949219 349.949219 393.332031 C 348.925781 394.390625 347.871094 395.417969 346.878906 396.5 C 345.273438 395.0625 343.398438 393.878906 341.308594 393.296875 C 339.242188 392.773438 336.9375 392.785156 335.023438 393.8125 C 333.636719 394.539063 333.328125 396.65625 334.402344 397.777344 C 335.046875 398.429688 335.964844 398.667969 336.808594 398.949219 C 339.167969 399.746094 341.652344 400.074219 344.003906 400.894531 C 345.90625 401.488281 347.75 402.347656 349.328125 403.574219 C 350.824219 404.691406 352.023438 406.207031 352.75 407.925781 C 353.613281 410.046875 353.632813 412.417969 353.285156 414.652344 C 352.964844 416.75 351.980469 418.703125 350.582031 420.285156 C 349.160156 421.933594 347.277344 423.121094 345.277344 423.941406 C 343.375 424.691406 341.355469 425.109375 339.328125 425.328125 C 337.84375 425.496094 336.351563 425.449219 334.863281 425.417969 C 332.617188 425.265625 330.386719 424.886719 328.230469 424.234375 C 326.269531 423.65625 324.363281 422.867188 322.628906 421.785156 C 321.535156 421.070313 320.449219 420.320313 319.558594 419.355469 C 321.054688 417.859375 322.460938 416.273438 323.941406 414.765625 C 324.882813 413.734375 325.867188 412.75 326.804688 411.71875 C 328.207031 413.238281 329.953125 414.417969 331.851563 415.234375 C 332.695313 415.578125 333.570313 415.855469 334.476563 415.988281 C 335.769531 416.1875 337.121094 416.253906 338.382813 415.855469 C 339.285156 415.566406 340.261719 415.1875 340.746094 414.3125 C 341.191406 413.40625 341.246094 412.257813 340.730469 411.363281 C 340.328125 410.632813 339.558594 410.21875 338.8125 409.910156 C 336.925781 409.144531 334.941406 408.652344 332.960938 408.1875 C 331.804688 407.902344 330.664063 407.554688 329.550781 407.136719 C 327.960938 406.585938 326.480469 405.71875 325.21875 404.613281 C 323.476563 403.046875 322.230469 400.886719 321.953125 398.542969 C 321.699219 396.371094 321.863281 394.105469 322.695313 392.0625 C 323.414063 390.371094 324.5625 388.878906 325.941406 387.675781 C 327.546875 386.324219 329.425781 385.324219 331.421875 384.683594 "/>
<path style=" stroke:none;fill-rule:evenodd;fill:rgb(91.796875%,13.330078%,0%);fill-opacity:1;" d="M 222.976563 408.523438 C 224.199219 408.28125 225.480469 408.339844 226.6875 408.644531 C 228.300781 409.054688 229.753906 409.988281 230.882813 411.203125 C 232.167969 412.699219 233.035156 414.609375 233.082031 416.597656 C 233.21875 419.570313 231.59375 422.496094 229.128906 424.113281 C 228.226563 424.679688 227.226563 425.113281 226.179688 425.320313 C 225.382813 425.480469 224.566406 425.449219 223.761719 425.429688 C 220.539063 425.121094 217.644531 422.820313 216.5 419.8125 C 215.984375 418.425781 215.894531 416.910156 216.109375 415.457031 C 216.695313 412.03125 219.566406 409.160156 222.976563 408.523438 "/>
</g>
</svg>
