<?xml version="1.0" encoding="utf-8"?>
<!-- Generator: Adobe Illustrator 19.2.1, SVG Export Plug-In . SVG Version: 6.00 Build 0)  -->
<svg version="1.1" id="layer" xmlns="http://www.w3.org/2000/svg" xmlns:xlink="http://www.w3.org/1999/xlink" x="0px" y="0px"
	 viewBox="0 0 652 652" style="enable-background:new 0 0 652 652;" xml:space="preserve">
<style type="text/css">
	.st0{fill:#3232EF;}
	.st1{fill:#3C3C3C;}
</style>
<path class="st0" d="M69.8,343.7h11.6v-23.5H71v-4.8h15.6v28.3h10.8v4.8H69.8V343.7z M79.3,305.4c0-2.6,2.1-4.7,4.7-4.7
	s4.7,2.1,4.7,4.7c0,1.2-0.5,2.4-1.4,3.3c-1.8,1.8-4.8,1.8-6.6,0C79.8,307.9,79.3,306.7,79.3,305.4z M125.7,348.5h-10.3l-11.6-33.2
	h6.2l10.2,30.8h0.8l10.2-30.8h6.2L125.7,348.5z M148.8,333.5c0,2.9,1.1,5.8,3.1,8c2.1,2.1,5,3.2,8,3c1.4,0,2.8-0.2,4.1-0.5
	c1.1-0.3,2.1-0.8,3-1.5c0.8-0.6,1.5-1.3,2-2.2c0.5-0.8,0.9-1.7,1.2-2.6l4.9,1.3c-0.9,3-2.7,5.6-5.2,7.5c-3,2.1-6.6,3.1-10.2,2.9
	c-2.2,0-4.4-0.4-6.5-1.2c-1.9-0.8-3.7-2-5.1-3.5c-1.5-1.6-2.6-3.4-3.3-5.4c-0.8-2.2-1.2-4.6-1.2-7v-1.6c0-2.2,0.4-4.4,1.2-6.5
	c0.8-1.9,2-3.7,3.4-5.2c1.5-1.5,3.3-2.6,5.2-3.4c2-0.8,4.2-1.3,6.5-1.2c2.4-0.1,4.9,0.5,7.1,1.5c1.9,0.9,3.5,2.2,4.9,3.7
	c2.3,2.7,3.6,6.1,3.7,9.6v4.3L148.8,333.5z M159.9,319.3c-1.4,0-2.8,0.2-4.1,0.7c-2.4,0.9-4.5,2.6-5.7,4.9c-0.6,1.2-1,2.4-1.2,3.7
	h21.4c-0.1-1.4-0.4-2.7-1-3.9c-0.6-1.1-1.4-2.1-2.3-2.9c-1-0.8-2.1-1.4-3.3-1.9C162.4,319.6,161.1,319.3,159.9,319.3z M211.9,342.9
	h-0.8c-0.9,2.1-2.5,3.8-4.4,4.9c-1.8,1-3.9,1.6-6,1.6c-2.1,0-4.1-0.4-6.1-1.1c-1.9-0.7-3.5-1.8-4.9-3.3c-1.5-1.5-2.6-3.3-3.3-5.3
	c-0.8-2.3-1.3-4.8-1.2-7.3v-1.1c0-2.5,0.4-4.9,1.2-7.2c0.7-2,1.9-3.8,3.3-5.3c1.4-1.4,3.1-2.6,4.9-3.3c1.9-0.8,3.9-1.2,6-1.2
	c2.2,0,4.3,0.5,6.2,1.5c1.9,1.1,3.4,2.7,4.4,4.6h0.8v-5.2h5.2v26.3c0,1.3,0.6,2,1.8,2h1.7v4.8H217c-1.4,0.1-2.7-0.5-3.7-1.5
	c-1-1-1.5-2.3-1.4-3.7L211.9,342.9z M201.2,344.5c1.5,0,3-0.3,4.3-0.9c1.3-0.6,2.4-1.4,3.4-2.5c1-1.1,1.7-2.4,2.2-3.8
	c0.6-1.6,0.8-3.3,0.8-5v-0.8c0-1.7-0.3-3.3-0.8-4.9c-0.5-1.4-1.2-2.7-2.2-3.8c-1-1.1-2.1-1.9-3.4-2.5c-1.3-0.6-2.8-0.9-4.2-0.9
	c-1.5,0-2.9,0.3-4.3,0.9c-1.3,0.6-2.4,1.4-3.4,2.4c-1,1.1-1.8,2.4-2.2,3.8c-0.5,1.6-0.8,3.2-0.8,4.9v1.1c-0.2,3.2,0.9,6.4,3,8.8
	C195.5,343.4,198.3,344.6,201.2,344.5L201.2,344.5z M236.7,348.5h-5.2v-46.8h5.2v18.9h0.8c1.1-2,2.8-3.6,4.8-4.6
	c2.1-1.1,4.4-1.6,6.7-1.6c2,0,4,0.4,5.8,1.1c1.8,0.8,3.5,1.9,4.8,3.3c1.5,1.5,2.6,3.3,3.3,5.3c0.9,2.3,1.3,4.7,1.2,7.2v1.3
	c0,2.5-0.4,4.9-1.2,7.2c-0.7,2-1.9,3.8-3.3,5.3c-1.4,1.4-3.1,2.5-4.9,3.2c-1.9,0.7-3.9,1.1-6,1.1c-1.1,0-2.2-0.1-3.3-0.4
	c-1.1-0.2-2.2-0.6-3.2-1.1c-1-0.5-1.9-1.1-2.8-1.9c-0.9-0.8-1.6-1.6-2.1-2.6h-0.8L236.7,348.5z M247.8,344.5c1.5,0,3-0.3,4.4-0.8
	c1.3-0.5,2.5-1.4,3.5-2.4c1-1.1,1.8-2.3,2.3-3.7c0.6-1.6,0.9-3.3,0.8-4.9v-1.3c0-1.7-0.3-3.3-0.8-4.8c-0.5-1.4-1.3-2.7-2.3-3.7
	c-1-1-2.2-1.9-3.5-2.4c-1.4-0.6-2.9-0.9-4.4-0.9c-1.5,0-3,0.3-4.3,0.9c-1.3,0.6-2.5,1.4-3.5,2.5c-1,1.1-1.8,2.4-2.4,3.8
	c-0.6,1.6-0.9,3.2-0.9,4.9v0.8c0,1.7,0.3,3.4,0.9,5c0.5,1.4,1.3,2.7,2.4,3.8c1,1.1,2.2,1.9,3.5,2.5
	C244.8,344.2,246.3,344.5,247.8,344.5z M306.9,332.3c0,2.5-0.4,5-1.4,7.3c-0.8,2-2.1,3.8-3.6,5.3c-1.5,1.5-3.3,2.6-5.3,3.3
	c-4.1,1.5-8.6,1.5-12.7,0c-2-0.7-3.8-1.9-5.3-3.3c-1.6-1.5-2.8-3.3-3.6-5.3c-1-2.3-1.4-4.8-1.4-7.3v-0.8c0-2.5,0.4-5,1.4-7.3
	c0.9-2,2.1-3.9,3.7-5.4c1.5-1.5,3.3-2.6,5.3-3.3c4.1-1.5,8.5-1.5,12.6,0c2,0.7,3.8,1.9,5.3,3.3c1.6,1.5,2.8,3.4,3.7,5.4
	c1,2.3,1.4,4.8,1.4,7.3L306.9,332.3z M290.2,344.5c1.5,0,3-0.3,4.4-0.8c1.4-0.6,2.6-1.4,3.6-2.4c1-1.1,1.9-2.4,2.4-3.8
	c0.6-1.6,0.9-3.3,0.9-5v-0.8c0-1.7-0.3-3.3-0.9-4.9c-0.5-1.4-1.4-2.7-2.4-3.8c-1-1.1-2.3-1.9-3.6-2.5c-2.8-1.2-6-1.2-8.8,0
	c-1.4,0.6-2.6,1.4-3.6,2.5c-1.1,1.1-1.9,2.4-2.4,3.8c-0.6,1.6-0.9,3.2-0.9,4.9v0.8c0,1.7,0.3,3.4,0.9,5c0.5,1.4,1.4,2.7,2.4,3.8
	c1,1.1,2.2,1.9,3.6,2.4C287.2,344.2,288.7,344.5,290.2,344.5L290.2,344.5z M340.1,315.3h5.2v33.2h-5.2v-6h-0.8c-1,2-2.4,3.8-4.2,5.1
	c-2,1.3-4.3,2-6.6,1.9c-1.7,0-3.4-0.3-5-0.9c-1.5-0.6-2.9-1.5-3.9-2.7c-1.1-1.3-2-2.8-2.5-4.5c-0.6-2-0.9-4.1-0.9-6.2v-19.8h5.2
	v19.1c-0.2,2.7,0.5,5.4,2.1,7.6c1.7,1.7,4.1,2.6,6.6,2.4c2.9,0.1,5.6-1.1,7.5-3.2c1.9-2.5,2.9-5.5,2.7-8.7L340.1,315.3z
	 M354.3,315.3h10.4v-13.6h5.2v13.6h12.8v4.8h-12.8v21.5c0,1.3,0.6,2,1.8,2h9.4v4.8h-11.3c-1.4,0.1-2.7-0.5-3.7-1.5
	c-1-1-1.5-2.3-1.4-3.7v-23.1h-10.4L354.3,315.3z M26.9,343.7h12v-37.2H27.3v-4.8h16.9v42h12v4.8H26.9V343.7z"/>
<path class="st1" d="M420.1,343.4h-0.8c-0.5,1-1.2,1.9-2,2.7c-0.8,0.7-1.7,1.4-2.7,1.9c-1,0.5-2,0.9-3,1.1c-1,0.2-2,0.4-3.1,0.4
	c-2.1,0-4.2-0.4-6.2-1.1c-3.9-1.5-7-4.6-8.5-8.6c-0.9-2.3-1.3-4.8-1.2-7.3v-1.1c0-2.5,0.4-4.9,1.3-7.2c0.8-2,1.9-3.8,3.4-5.3
	c1.4-1.4,3.1-2.6,5-3.3c1.9-0.8,4-1.2,6.1-1.1c2.2,0,4.4,0.5,6.4,1.5c2,1,3.6,2.6,4.6,4.6h0.8v-18.9h5.2v46.8H420L420.1,343.4z
	 M409,344.5c1.5,0,3-0.3,4.3-0.9c1.3-0.6,2.5-1.4,3.5-2.5c1-1.1,1.8-2.4,2.4-3.8c0.6-1.6,0.9-3.3,0.9-5v-0.8c0-1.7-0.3-3.3-0.9-4.9
	c-0.5-1.4-1.3-2.7-2.4-3.8c-1-1.1-2.2-1.9-3.5-2.5c-1.4-0.6-2.8-0.9-4.3-0.9c-1.5,0-3,0.3-4.4,0.9c-1.3,0.6-2.5,1.4-3.5,2.5
	c-1,1.1-1.8,2.4-2.3,3.8c-0.6,1.6-0.9,3.2-0.8,4.9v1.1c0,1.7,0.3,3.4,0.8,5c0.5,1.4,1.3,2.7,2.3,3.8c1,1,2.2,1.9,3.5,2.4
	C405.9,344.2,407.4,344.5,409,344.5L409,344.5z M468.6,332.3c0,2.5-0.4,5-1.4,7.3c-0.8,2-2.1,3.8-3.6,5.3c-1.5,1.5-3.3,2.6-5.3,3.3
	c-4.1,1.5-8.6,1.5-12.7,0c-2-0.7-3.8-1.9-5.3-3.3c-1.6-1.5-2.8-3.3-3.6-5.3c-1-2.3-1.4-4.8-1.4-7.3v-0.8c0-2.5,0.4-5,1.4-7.3
	c0.9-2,2.1-3.9,3.7-5.4c1.5-1.5,3.3-2.6,5.3-3.3c4.1-1.5,8.5-1.5,12.6,0c2,0.7,3.8,1.9,5.3,3.3c1.6,1.5,2.8,3.4,3.7,5.4
	c1,2.3,1.4,4.8,1.4,7.3L468.6,332.3z M451.9,344.5c1.5,0,3-0.3,4.4-0.8c1.4-0.6,2.6-1.4,3.6-2.4c1.1-1.1,1.9-2.4,2.4-3.8
	c0.6-1.6,0.9-3.3,0.9-5v-0.8c0-1.7-0.3-3.3-0.9-4.9c-0.5-1.4-1.4-2.7-2.4-3.8c-1-1.1-2.3-1.9-3.6-2.5c-2.8-1.2-6-1.2-8.8,0
	c-1.4,0.6-2.6,1.4-3.6,2.5c-1,1.1-1.9,2.4-2.4,3.8c-0.6,1.6-0.9,3.2-0.9,4.9v0.8c0,1.7,0.3,3.4,0.9,5c0.5,1.4,1.4,2.7,2.4,3.8
	c1,1.1,2.2,1.9,3.6,2.4C448.9,344.2,450.4,344.5,451.9,344.5z M473.1,315.3h10.4v-13.6h5.2v13.6h12.8v4.8h-12.8v21.5
	c0,1.3,0.6,2,1.8,2h9.4v4.8h-11.3c-1.4,0.1-2.7-0.5-3.7-1.5c-1-1-1.5-2.3-1.4-3.7v-23.1h-10.4V315.3z M542.3,336.7
	c-0.3,1.8-1,3.5-1.8,5.1c-1.7,3.2-4.6,5.5-8,6.7c-1.9,0.6-3.9,1-6,0.9c-2.2,0-4.5-0.4-6.6-1.1c-2-0.7-3.9-1.9-5.5-3.3
	c-1.6-1.5-2.9-3.3-3.7-5.3c-1-2.3-1.4-4.7-1.4-7.2v-0.8c0-2.5,0.4-4.9,1.4-7.2c0.8-2,2.1-3.9,3.7-5.4c1.6-1.5,3.4-2.6,5.5-3.4
	c2.1-0.8,4.3-1.2,6.6-1.2c2,0,3.9,0.3,5.8,0.9c1.7,0.6,3.3,1.5,4.7,2.6c1.4,1.1,2.5,2.5,3.3,4c0.9,1.6,1.5,3.3,1.8,5.1l-5.2,1.2
	c-0.1-1.2-0.5-2.3-1-3.4c-0.5-1.1-1.2-2.1-2.1-2.9c-0.9-0.9-2-1.5-3.2-2c-1.4-0.5-2.9-0.8-4.3-0.7c-1.6,0-3.1,0.3-4.5,0.9
	c-1.4,0.6-2.7,1.5-3.7,2.5c-1.1,1.1-1.9,2.5-2.5,3.9c-0.6,1.6-0.9,3.3-0.9,4.9v0.8c0,1.7,0.3,3.4,0.9,5c0.6,1.4,1.4,2.7,2.5,3.8
	c1.1,1,2.3,1.8,3.7,2.4c1.5,0.6,3,0.8,4.6,0.8c1.5,0,2.9-0.2,4.3-0.8c1.2-0.5,2.2-1.2,3.1-2c0.9-0.8,1.6-1.8,2.1-2.9
	c0.5-1.1,0.9-2.2,1-3.3L542.3,336.7z M583.4,332.3c0,2.5-0.4,5-1.4,7.3c-0.8,2-2.1,3.8-3.6,5.3c-1.5,1.5-3.3,2.6-5.3,3.3
	c-4.1,1.5-8.6,1.5-12.7,0c-2-0.7-3.8-1.9-5.3-3.3c-1.6-1.5-2.8-3.3-3.6-5.3c-1-2.3-1.4-4.8-1.4-7.3v-0.8c0-2.5,0.4-5,1.4-7.3
	c0.9-2,2.1-3.9,3.7-5.4c1.5-1.5,3.3-2.6,5.3-3.3c4.1-1.5,8.5-1.5,12.6,0c2,0.7,3.8,1.9,5.3,3.3c1.6,1.5,2.8,3.4,3.7,5.4
	c1,2.3,1.4,4.8,1.4,7.3L583.4,332.3z M566.8,344.5c1.5,0,3-0.3,4.4-0.8c1.4-0.6,2.6-1.4,3.6-2.4c1-1.1,1.9-2.4,2.4-3.8
	c0.6-1.6,0.9-3.3,0.9-5v-0.8c0-1.7-0.3-3.3-0.9-4.9c-0.5-1.4-1.4-2.7-2.4-3.8c-1-1.1-2.3-1.9-3.6-2.5c-2.8-1.2-6-1.2-8.8,0
	c-1.4,0.6-2.6,1.4-3.6,2.5c-1.1,1.1-1.9,2.4-2.4,3.8c-0.6,1.6-0.9,3.2-0.9,4.9v0.8c0,1.7,0.3,3.4,0.9,5c0.5,1.4,1.4,2.7,2.4,3.8
	c1,1.1,2.2,1.9,3.6,2.4C563.8,344.2,565.3,344.5,566.8,344.5L566.8,344.5z M626.9,348.5h-5.2v-23.8c0.1-1.4-0.3-2.7-1.1-3.8
	c-0.8-1-2.1-1.6-3.4-1.5c-1.4,0-2.7,0.6-3.6,1.6c-1,1.5-1.5,3.3-1.4,5v22.5h-5.2v-24.1c0.1-1.3-0.4-2.6-1.2-3.6
	c-0.8-1-2-1.5-3.2-1.4c-1.4-0.1-2.8,0.6-3.7,1.7c-0.9,1.3-1.4,2.9-1.3,4.5v22.9h-5.2v-33.2h5.2v3.6h0.8c0.5-1.4,1.3-2.6,2.5-3.4
	c1.2-0.8,2.6-1.1,3.9-1.1c1.4-0.1,2.8,0.4,4,1.3c1,0.8,1.8,2,2.2,3.3h0.8c1.2-2.9,4.1-4.7,7.2-4.5c2.2-0.1,4.3,0.7,5.8,2.4
	c1.4,1.7,2.1,3.9,2,6.2L626.9,348.5z"/>
</svg>
